<svg width="1002" height="285" viewBox="0 0 1002 285" fill="none" xmlns="http://www.w3.org/2000/svg">
<path d="M132.693 132.957V65.9536H199.696L132.693 132.957Z" fill="#3B82F6"/>
<path d="M67.0035 132.957V65.9536H134.007L67.0035 132.957Z" fill="#3B82F6"/>
<rect x="67.0035" y="131.643" width="95.9069" height="48.6104" fill="#1E40AF"/>
<rect y="131.643" width="67.0035" height="48.6104" fill="#3B82F6"/>
<path d="M134.007 65.9536L134.007 132.957L67.0035 132.957L134.007 65.9536Z" fill="#1D4ED8"/>
<path d="M67.0035 65.9536L67.0035 132.957L7.62939e-06 132.957L67.0035 65.9536Z" fill="#1D4ED8"/>
<path d="M199.696 64.6398L199.696 131.643L132.693 131.643L199.696 64.6398Z" fill="#1D4ED8"/>
<circle cx="251.535" cy="103.238" r="51.2379" transform="rotate(180 251.535 103.238)" fill="#3B82F6"/>
<circle cx="251.535" cy="103.238" r="21.0207" transform="rotate(180 251.535 103.238)" fill="#1D4ED8"/>
<path d="M298.831 154.476L298.831 87.4722L365.834 87.4722L298.831 154.476Z" fill="#1D4ED8"/>
<path d="M999.983 42.5186C986.682 42.5186 973.926 47.8596 964.521 57.3668C955.116 66.874 949.833 79.7685 949.833 93.2137C949.833 106.659 955.116 119.553 964.521 129.061C973.926 138.568 986.682 143.909 999.983 143.909L999.983 120.374C992.857 120.374 986.023 117.512 980.984 112.419C975.945 107.325 973.114 100.417 973.114 93.2137C973.114 86.0103 975.945 79.1021 980.984 74.0085C986.023 68.915 992.857 66.0535 999.983 66.0535L999.983 42.5186Z" fill="#3B82F6"/>
<path d="M999.982 0C975.405 -2.94804e-07 951.835 9.82069 934.456 27.3016C917.077 44.7826 907.314 68.4918 907.314 93.2136C907.314 117.935 917.077 141.645 934.456 159.126C951.835 176.606 975.405 186.427 999.982 186.427L999.982 143.153C986.815 143.153 974.187 137.892 964.876 128.526C955.566 119.161 950.335 106.458 950.335 93.2136C950.335 79.9688 955.566 67.2664 964.876 57.9009C974.187 48.5354 986.815 43.274 999.982 43.274L999.982 0Z" fill="#1D4ED8"/>
<circle cx="939.475" cy="222.95" r="59.962" transform="rotate(180 939.475 222.95)" stroke="#1E40AF" stroke-width="3.27065"/>
<circle cx="939.476" cy="222.95" r="49.0598" transform="rotate(180 939.476 222.95)" stroke="#1E40AF" stroke-width="3.27065"/>
<circle cx="939.475" cy="222.95" r="39.2478" transform="rotate(180 939.475 222.95)" stroke="#1E40AF" stroke-width="3.27065"/>
<circle cx="939.476" cy="222.949" r="28.3457" transform="rotate(180 939.476 222.949)" stroke="#1E40AF" stroke-width="3.27065"/>
<circle cx="939.475" cy="222.95" r="17.4435" transform="rotate(180 939.475 222.95)" stroke="#1E40AF" stroke-width="3.27065"/>
<circle cx="939.476" cy="222.949" r="7.63152" transform="rotate(180 939.476 222.949)" stroke="#3B82F6" stroke-width="3.27065"/>
<rect x="918.216" y="180.976" width="55.6011" height="40.338" transform="rotate(180 918.216 180.976)" fill="#1E40AF"/>
<path d="M862.615 235.487L862.615 179.886L918.216 179.886L862.615 235.487Z" fill="#1D4ED8"/>
<path d="M778.311 199.749L833.476 110.517L888.642 199.749H778.311Z" stroke="#1D4ED8" stroke-width="2.18043"/>
<path d="M790.958 91L848.08 182.578H733.837L790.958 91Z" fill="#1D4ED8"/>
</svg>
